<svg width="827" height="940" viewBox="0 0 827 940" fill="none" xmlns="http://www.w3.org/2000/svg">
<g clip-path="url(#clip0_6246_62813)">
<rect width="827" height="940" rx="30" fill="white"/>
<path d="M-13.3068 756C-57.5225 847.325 -62.3535 899.288 -59.242 913.854C-60.634 938.731 -47.8443 983.33 14.4508 962.708C76.7458 942.086 170.107 949.86 209 956.325C204.873 920.188 186.626 907.186 169.206 906.489C156.924 905.998 129.657 896.031 118.849 860.091C108.041 824.15 80.2621 822.284 64.0707 825.967C11.6013 838.536 -9.37654 784.559 -13.3068 756Z" fill="#FFF4E6"/>
<path d="M840.307 756C884.523 847.325 889.354 899.288 886.242 913.854C887.634 938.731 874.844 983.33 812.549 962.708C750.254 942.086 656.893 949.86 618 956.325C622.127 920.188 640.374 907.186 657.794 906.489C670.076 905.998 697.343 896.031 708.151 860.091C718.959 824.15 746.738 822.284 762.929 825.967C815.399 838.536 836.377 784.559 840.307 756Z" fill="#FFF4E6"/>
<path d="M24 515.802C25.9533 515.184 28.3814 515.791 32.5373 518.151C36.4257 520.358 39.9206 517.427 41.3581 514.071C42.7955 510.716 45.5481 506.408 51.6737 509.626C59.3404 513.655 62.2319 511.228 64.2266 506.193C66.1569 501.32 69.1869 500.473 74.9617 503.12C80.7365 505.767 83.3635 505.726 86.8999 498.376C87.8556 496.248 91.7567 492.543 96.7859 495.679C101.707 498.748 103.453 497.867 104.888 497.306" stroke="#F7A02F" stroke-width="4"/>
<path d="M743.306 144C744.338 145.769 744.281 148.271 742.895 152.845C741.597 157.124 745.227 159.887 748.816 160.551C752.406 161.214 757.214 162.95 755.423 169.634C753.182 178 756.186 180.286 761.537 181.123C766.715 181.933 768.209 184.702 766.899 190.918C765.589 197.134 766.207 199.687 774.154 201.518C776.441 201.982 780.914 204.971 778.963 210.568C777.053 216.044 778.296 217.553 779.16 218.829" stroke="#F7A02F" stroke-width="4"/>
<path d="M651.123 509.744C651.083 509.854 651.033 510.194 650.853 510.424C650.563 510.784 650.213 511.134 649.823 511.394C647.683 512.794 645.343 513.764 642.903 514.514C642.563 514.614 642.213 514.534 642.103 514.214C642.013 513.954 642.053 513.574 642.203 513.354C642.413 513.034 642.743 512.774 643.073 512.564C644.893 511.434 646.713 510.304 648.543 509.204C648.943 508.964 649.413 508.814 649.863 508.684C650.393 508.544 651.053 509.034 651.123 509.744Z" fill="#334770"/>
<path d="M647.883 526.734C648.223 526.974 648.713 527.434 648.613 527.964C648.543 528.374 648.093 528.474 647.823 528.594C647.623 528.684 647.313 528.694 647.123 528.594C645.393 527.624 643.663 526.624 641.953 525.614C641.763 525.504 641.613 525.264 641.543 525.054C641.483 524.854 641.483 524.564 641.583 524.394C641.683 524.214 641.923 524.094 642.133 524.004C642.263 523.944 642.453 523.954 642.603 524.004C644.493 524.644 646.253 525.584 647.883 526.734Z" fill="#334770"/>
<path d="M646.893 519.854C647.053 519.914 647.223 520.284 647.173 520.424C647.083 520.674 646.853 520.924 646.623 521.074C646.443 521.194 646.173 521.164 645.883 521.214C645.483 521.084 645.023 520.974 644.593 520.774C644.223 520.604 643.943 520.274 644.033 519.844C644.123 519.424 644.503 519.144 644.903 519.224C645.603 519.354 646.253 519.594 646.893 519.854Z" fill="#334770"/>
<path d="M640.773 507.653C640.813 507.803 640.883 507.973 640.853 508.113C640.553 509.333 639.823 510.243 638.713 510.813C638.563 510.893 638.273 510.763 638.083 510.663C637.973 510.603 637.943 510.403 637.833 510.183C638.253 509.033 638.763 507.893 639.993 507.273C640.223 507.153 640.693 507.393 640.773 507.653Z" fill="#334770"/>
<path d="M638.223 534.823C638.153 535.123 638.103 535.353 638.043 535.583C637.953 535.923 637.293 536.093 637.053 535.813C636.803 535.523 636.503 535.203 636.413 534.853C635.843 532.713 635.323 530.553 634.793 528.403C634.743 528.183 634.733 527.893 634.833 527.703C634.963 527.443 635.183 527.133 635.433 527.043C635.683 526.963 636.063 527.063 636.303 527.213C636.553 527.363 636.753 527.653 636.893 527.923C637.073 528.263 637.233 528.653 637.293 529.033C637.623 530.973 637.923 532.933 638.223 534.823Z" fill="#334770"/>
<path d="M634.243 508.874C634.283 509.434 634.133 509.974 633.733 510.414C633.483 510.694 632.863 510.674 632.703 510.334C632.573 510.054 632.433 509.764 632.383 509.464C632.143 507.894 631.923 506.324 631.683 504.624C631.743 504.034 631.773 503.314 631.913 502.624C631.993 502.214 632.383 501.934 632.803 502.014C633.073 502.064 633.343 502.304 633.543 502.534C633.683 502.694 633.773 502.954 633.793 503.184C633.963 505.074 634.113 506.974 634.243 508.874Z" fill="#334770"/>
<path d="M630.683 526.714C630.823 526.884 630.973 527.164 630.923 527.334C630.563 528.734 629.653 529.684 628.303 530.184C628.243 530.204 628.143 530.164 627.973 530.134C627.893 530.014 627.733 529.844 627.663 529.644C627.613 529.514 627.643 529.314 627.703 529.174C628.193 528.154 628.863 527.264 629.813 526.634C630.123 526.454 630.453 526.434 630.683 526.714Z" fill="#334770"/>
<path d="M628.883 512.034C628.983 512.474 628.513 512.874 628.273 512.744C627.643 512.424 626.953 512.154 626.403 511.704C624.933 510.494 623.513 509.204 622.083 507.934C621.913 507.784 621.723 507.574 621.673 507.364C621.603 507.084 621.553 506.694 621.693 506.494C621.843 506.284 622.233 506.124 622.503 506.154C622.873 506.194 623.283 506.364 623.593 506.584C625.553 507.984 627.163 509.754 628.703 511.574C628.843 511.744 628.873 512.004 628.883 512.034Z" fill="#334770"/>
<path d="M627.343 523.094C627.223 523.334 627.173 523.594 627.013 523.744C626.673 524.064 626.303 524.384 625.893 524.614C624.013 525.634 622.133 526.654 620.213 527.604C619.743 527.834 619.153 527.874 618.623 527.914C618.153 527.944 617.823 527.214 618.103 526.834C618.293 526.584 618.483 526.284 618.733 526.154C621.063 524.964 623.383 523.784 625.743 522.654C626.063 522.494 626.523 522.534 626.893 522.594C627.063 522.614 627.193 522.914 627.343 523.094Z" fill="#334770"/>
<path d="M625.173 516.484C625.323 516.594 625.443 516.904 625.403 517.084C625.353 517.264 625.123 517.454 624.923 517.534C624.713 517.624 624.453 517.594 624.213 517.614C623.353 517.484 622.463 517.434 621.753 516.834C621.543 516.654 621.583 516.154 621.833 516.024C621.963 515.954 622.103 515.834 622.243 515.804C623.313 515.604 624.303 515.854 625.173 516.484Z" fill="#334770"/>
<path d="M75.123 718.744C75.083 718.854 75.033 719.194 74.853 719.424C74.563 719.784 74.213 720.134 73.823 720.394C71.683 721.794 69.343 722.764 66.903 723.514C66.563 723.614 66.213 723.534 66.103 723.214C66.013 722.954 66.053 722.574 66.203 722.354C66.413 722.034 66.743 721.774 67.073 721.564C68.893 720.434 70.713 719.304 72.543 718.204C72.943 717.964 73.413 717.814 73.863 717.684C74.393 717.544 75.053 718.034 75.123 718.744Z" fill="#334770"/>
<path d="M71.883 735.734C72.223 735.974 72.713 736.434 72.613 736.964C72.543 737.374 72.093 737.474 71.823 737.594C71.623 737.684 71.313 737.694 71.123 737.594C69.393 736.624 67.663 735.624 65.953 734.614C65.763 734.504 65.613 734.264 65.543 734.054C65.483 733.854 65.483 733.564 65.583 733.394C65.683 733.214 65.923 733.094 66.133 733.004C66.263 732.944 66.453 732.954 66.603 733.004C68.493 733.644 70.253 734.584 71.883 735.734Z" fill="#334770"/>
<path d="M70.8929 728.854C71.0529 728.914 71.2229 729.284 71.1729 729.424C71.0829 729.674 70.8529 729.924 70.6229 730.074C70.4429 730.194 70.173 730.164 69.883 730.214C69.483 730.084 69.0229 729.974 68.5929 729.774C68.2229 729.604 67.943 729.274 68.033 728.844C68.123 728.424 68.5029 728.144 68.9029 728.224C69.6029 728.354 70.2529 728.594 70.8929 728.854Z" fill="#334770"/>
<path d="M64.773 716.653C64.813 716.803 64.883 716.973 64.853 717.113C64.553 718.333 63.823 719.243 62.713 719.813C62.563 719.893 62.273 719.763 62.083 719.663C61.973 719.603 61.943 719.403 61.833 719.183C62.253 718.033 62.763 716.893 63.993 716.273C64.223 716.153 64.693 716.393 64.773 716.653Z" fill="#334770"/>
<path d="M62.223 743.823C62.153 744.123 62.103 744.353 62.043 744.583C61.953 744.923 61.293 745.093 61.053 744.813C60.803 744.523 60.503 744.203 60.413 743.853C59.843 741.713 59.323 739.553 58.793 737.403C58.743 737.183 58.733 736.893 58.833 736.703C58.963 736.443 59.183 736.133 59.433 736.043C59.683 735.963 60.063 736.063 60.303 736.213C60.553 736.363 60.753 736.653 60.893 736.923C61.073 737.263 61.233 737.653 61.293 738.033C61.623 739.973 61.923 741.933 62.223 743.823Z" fill="#334770"/>
<path d="M58.243 717.874C58.283 718.434 58.133 718.974 57.733 719.414C57.483 719.694 56.863 719.674 56.703 719.334C56.573 719.054 56.433 718.764 56.383 718.464C56.143 716.894 55.923 715.324 55.683 713.624C55.743 713.034 55.773 712.314 55.913 711.624C55.993 711.214 56.383 710.934 56.803 711.014C57.073 711.064 57.343 711.304 57.543 711.534C57.683 711.694 57.773 711.954 57.793 712.184C57.963 714.074 58.113 715.974 58.243 717.874Z" fill="#334770"/>
<path d="M54.683 735.714C54.823 735.884 54.973 736.164 54.923 736.334C54.563 737.734 53.653 738.684 52.303 739.184C52.243 739.204 52.143 739.164 51.973 739.134C51.893 739.014 51.733 738.844 51.663 738.644C51.613 738.514 51.643 738.314 51.703 738.174C52.193 737.154 52.863 736.264 53.813 735.634C54.123 735.454 54.453 735.434 54.683 735.714Z" fill="#334770"/>
<path d="M52.883 721.034C52.983 721.474 52.513 721.874 52.273 721.744C51.643 721.424 50.953 721.154 50.403 720.704C48.933 719.494 47.513 718.204 46.083 716.934C45.913 716.784 45.723 716.574 45.673 716.364C45.603 716.084 45.553 715.694 45.693 715.494C45.843 715.284 46.233 715.124 46.503 715.154C46.873 715.194 47.283 715.364 47.593 715.584C49.553 716.984 51.163 718.754 52.703 720.574C52.843 720.744 52.873 721.004 52.883 721.034Z" fill="#334770"/>
<path d="M51.343 732.094C51.223 732.334 51.173 732.594 51.013 732.744C50.673 733.064 50.303 733.384 49.893 733.614C48.013 734.634 46.133 735.654 44.213 736.604C43.743 736.834 43.153 736.874 42.623 736.914C42.153 736.944 41.823 736.214 42.103 735.834C42.293 735.584 42.483 735.284 42.733 735.154C45.063 733.964 47.383 732.784 49.743 731.654C50.063 731.494 50.523 731.534 50.893 731.594C51.063 731.614 51.193 731.914 51.343 732.094Z" fill="#334770"/>
<path d="M49.173 725.484C49.323 725.594 49.443 725.904 49.403 726.084C49.353 726.264 49.123 726.454 48.923 726.534C48.713 726.624 48.453 726.594 48.213 726.614C47.353 726.484 46.463 726.434 45.753 725.834C45.543 725.654 45.583 725.154 45.833 725.024C45.963 724.954 46.103 724.834 46.243 724.804C47.313 724.604 48.303 724.854 49.173 725.484Z" fill="#334770"/>
<path d="M230.123 228.744C230.083 228.854 230.033 229.194 229.853 229.424C229.563 229.784 229.213 230.134 228.823 230.394C226.683 231.794 224.343 232.764 221.903 233.514C221.563 233.614 221.213 233.534 221.103 233.214C221.013 232.954 221.053 232.574 221.203 232.354C221.413 232.034 221.743 231.774 222.073 231.564C223.893 230.434 225.713 229.304 227.543 228.204C227.943 227.964 228.413 227.814 228.863 227.684C229.393 227.544 230.053 228.034 230.123 228.744Z" fill="#334770"/>
<path d="M226.883 245.734C227.223 245.974 227.713 246.434 227.613 246.964C227.543 247.374 227.093 247.474 226.823 247.594C226.623 247.684 226.313 247.694 226.123 247.594C224.393 246.624 222.663 245.624 220.953 244.614C220.763 244.504 220.613 244.264 220.543 244.054C220.483 243.854 220.483 243.564 220.583 243.394C220.683 243.214 220.923 243.094 221.133 243.004C221.263 242.944 221.453 242.954 221.603 243.004C223.493 243.644 225.253 244.584 226.883 245.734Z" fill="#334770"/>
<path d="M225.893 238.854C226.053 238.914 226.223 239.284 226.173 239.424C226.083 239.674 225.853 239.924 225.623 240.074C225.443 240.194 225.173 240.164 224.883 240.214C224.483 240.084 224.023 239.974 223.593 239.774C223.223 239.604 222.943 239.274 223.033 238.844C223.123 238.424 223.503 238.144 223.903 238.224C224.603 238.354 225.253 238.594 225.893 238.854Z" fill="#334770"/>
<path d="M219.773 226.653C219.813 226.803 219.883 226.973 219.853 227.113C219.553 228.333 218.823 229.243 217.713 229.813C217.563 229.893 217.273 229.763 217.083 229.663C216.973 229.603 216.943 229.403 216.833 229.183C217.253 228.033 217.763 226.893 218.993 226.273C219.223 226.153 219.693 226.393 219.773 226.653Z" fill="#334770"/>
<path d="M217.223 253.823C217.153 254.123 217.103 254.353 217.043 254.583C216.953 254.923 216.293 255.093 216.053 254.813C215.803 254.523 215.503 254.203 215.413 253.853C214.843 251.713 214.323 249.553 213.793 247.403C213.743 247.183 213.733 246.893 213.833 246.703C213.963 246.443 214.183 246.133 214.433 246.043C214.683 245.963 215.063 246.063 215.303 246.213C215.553 246.363 215.753 246.653 215.893 246.923C216.073 247.263 216.233 247.653 216.293 248.033C216.623 249.973 216.923 251.933 217.223 253.823Z" fill="#334770"/>
<path d="M213.243 227.874C213.283 228.434 213.133 228.974 212.733 229.414C212.483 229.694 211.863 229.674 211.703 229.334C211.573 229.054 211.433 228.764 211.383 228.464C211.143 226.894 210.923 225.324 210.683 223.624C210.743 223.034 210.773 222.314 210.913 221.624C210.993 221.214 211.383 220.934 211.803 221.014C212.073 221.064 212.343 221.304 212.543 221.534C212.683 221.694 212.773 221.954 212.793 222.184C212.963 224.074 213.113 225.974 213.243 227.874Z" fill="#334770"/>
<path d="M209.683 245.714C209.823 245.884 209.973 246.164 209.923 246.334C209.563 247.734 208.653 248.684 207.303 249.184C207.243 249.204 207.143 249.164 206.973 249.134C206.893 249.014 206.733 248.844 206.663 248.644C206.613 248.514 206.643 248.314 206.703 248.174C207.193 247.154 207.863 246.264 208.813 245.634C209.123 245.454 209.453 245.434 209.683 245.714Z" fill="#334770"/>
<path d="M207.883 231.034C207.983 231.474 207.513 231.874 207.273 231.744C206.643 231.424 205.953 231.154 205.403 230.704C203.933 229.494 202.513 228.204 201.083 226.934C200.913 226.784 200.723 226.574 200.673 226.364C200.603 226.084 200.553 225.694 200.693 225.494C200.843 225.284 201.233 225.124 201.503 225.154C201.873 225.194 202.283 225.364 202.593 225.584C204.553 226.984 206.163 228.754 207.703 230.574C207.843 230.744 207.873 231.004 207.883 231.034Z" fill="#334770"/>
<path d="M206.343 242.094C206.223 242.334 206.173 242.594 206.013 242.744C205.673 243.064 205.303 243.384 204.893 243.614C203.013 244.634 201.133 245.654 199.213 246.604C198.743 246.834 198.153 246.874 197.623 246.914C197.153 246.944 196.823 246.214 197.103 245.834C197.293 245.584 197.483 245.284 197.733 245.154C200.063 243.964 202.383 242.784 204.743 241.654C205.063 241.494 205.523 241.534 205.893 241.594C206.063 241.614 206.193 241.914 206.343 242.094Z" fill="#334770"/>
<path d="M204.173 235.484C204.323 235.594 204.443 235.904 204.403 236.084C204.353 236.264 204.123 236.454 203.923 236.534C203.713 236.624 203.453 236.594 203.213 236.614C202.353 236.484 201.463 236.434 200.753 235.834C200.543 235.654 200.583 235.154 200.833 235.024C200.963 234.954 201.103 234.834 201.243 234.804C202.313 234.604 203.303 234.854 204.173 235.484Z" fill="#334770"/>
<path d="M747.123 50.7436C747.083 50.8536 747.033 51.1936 746.853 51.4236C746.563 51.7836 746.213 52.1336 745.823 52.3936C743.683 53.7936 741.343 54.7636 738.903 55.5136C738.563 55.6136 738.213 55.5336 738.103 55.2136C738.013 54.9536 738.053 54.5736 738.203 54.3536C738.413 54.0336 738.743 53.7736 739.073 53.5636C740.893 52.4336 742.713 51.3036 744.543 50.2036C744.943 49.9636 745.413 49.8136 745.863 49.6836C746.393 49.5436 747.053 50.0336 747.123 50.7436Z" fill="#334770"/>
<path d="M743.883 67.7337C744.223 67.9737 744.713 68.4337 744.613 68.9637C744.543 69.3737 744.093 69.4737 743.823 69.5937C743.623 69.6837 743.313 69.6937 743.123 69.5937C741.393 68.6237 739.663 67.6237 737.953 66.6137C737.763 66.5037 737.613 66.2637 737.543 66.0537C737.483 65.8537 737.483 65.5637 737.583 65.3937C737.683 65.2137 737.923 65.0937 738.133 65.0037C738.263 64.9437 738.453 64.9537 738.603 65.0037C740.493 65.6437 742.253 66.5837 743.883 67.7337Z" fill="#334770"/>
<path d="M742.893 60.8536C743.053 60.9136 743.223 61.2836 743.173 61.4236C743.083 61.6736 742.853 61.9236 742.623 62.0736C742.443 62.1936 742.173 62.1636 741.883 62.2136C741.483 62.0836 741.023 61.9736 740.593 61.7736C740.223 61.6036 739.943 61.2736 740.033 60.8436C740.123 60.4236 740.503 60.1436 740.903 60.2236C741.603 60.3536 742.253 60.5936 742.893 60.8536Z" fill="#334770"/>
<path d="M736.773 48.6535C736.813 48.8035 736.883 48.9735 736.853 49.1135C736.553 50.3335 735.823 51.2435 734.713 51.8135C734.563 51.8935 734.273 51.7635 734.083 51.6635C733.973 51.6035 733.943 51.4035 733.833 51.1835C734.253 50.0335 734.763 48.8935 735.993 48.2735C736.223 48.1535 736.693 48.3935 736.773 48.6535Z" fill="#334770"/>
<path d="M734.223 75.8234C734.153 76.1234 734.103 76.3534 734.043 76.5834C733.953 76.9234 733.293 77.0934 733.053 76.8134C732.803 76.5234 732.503 76.2034 732.413 75.8534C731.843 73.7134 731.323 71.5534 730.793 69.4034C730.743 69.1834 730.733 68.8934 730.833 68.7034C730.963 68.4434 731.183 68.1334 731.433 68.0434C731.683 67.9634 732.063 68.0634 732.303 68.2134C732.553 68.3634 732.753 68.6534 732.893 68.9234C733.073 69.2634 733.233 69.6534 733.293 70.0334C733.623 71.9734 733.923 73.9334 734.223 75.8234Z" fill="#334770"/>
<path d="M730.243 49.8737C730.283 50.4337 730.133 50.9737 729.733 51.4137C729.483 51.6937 728.863 51.6737 728.703 51.3337C728.573 51.0537 728.433 50.7637 728.383 50.4637C728.143 48.8937 727.923 47.3237 727.683 45.6237C727.743 45.0337 727.773 44.3137 727.913 43.6237C727.993 43.2137 728.383 42.9337 728.803 43.0137C729.073 43.0637 729.343 43.3037 729.543 43.5337C729.683 43.6937 729.773 43.9537 729.793 44.1837C729.963 46.0737 730.113 47.9737 730.243 49.8737Z" fill="#334770"/>
<path d="M726.683 67.7137C726.823 67.8837 726.973 68.1637 726.923 68.3337C726.563 69.7337 725.653 70.6837 724.303 71.1837C724.243 71.2037 724.143 71.1637 723.973 71.1337C723.893 71.0137 723.733 70.8437 723.663 70.6437C723.613 70.5137 723.643 70.3137 723.703 70.1737C724.193 69.1537 724.863 68.2637 725.813 67.6337C726.123 67.4537 726.453 67.4337 726.683 67.7137Z" fill="#334770"/>
<path d="M724.883 53.0335C724.983 53.4735 724.513 53.8735 724.273 53.7435C723.643 53.4235 722.953 53.1535 722.403 52.7035C720.933 51.4935 719.513 50.2035 718.083 48.9335C717.913 48.7835 717.723 48.5735 717.673 48.3635C717.603 48.0835 717.553 47.6935 717.693 47.4935C717.843 47.2835 718.233 47.1235 718.503 47.1535C718.873 47.1935 719.283 47.3635 719.593 47.5835C721.553 48.9835 723.163 50.7535 724.703 52.5735C724.843 52.7435 724.873 53.0035 724.883 53.0335Z" fill="#334770"/>
<path d="M723.343 64.0937C723.223 64.3337 723.173 64.5937 723.013 64.7437C722.673 65.0637 722.303 65.3837 721.893 65.6137C720.013 66.6337 718.133 67.6537 716.213 68.6037C715.743 68.8337 715.153 68.8737 714.623 68.9137C714.153 68.9437 713.823 68.2137 714.103 67.8337C714.293 67.5837 714.483 67.2837 714.733 67.1537C717.063 65.9637 719.383 64.7837 721.743 63.6537C722.063 63.4937 722.523 63.5337 722.893 63.5937C723.063 63.6137 723.193 63.9137 723.343 64.0937Z" fill="#334770"/>
<path d="M721.173 57.4838C721.323 57.5938 721.443 57.9038 721.403 58.0838C721.353 58.2638 721.123 58.4538 720.923 58.5338C720.713 58.6238 720.453 58.5938 720.213 58.6138C719.353 58.4838 718.463 58.4338 717.753 57.8338C717.543 57.6538 717.583 57.1538 717.833 57.0238C717.963 56.9538 718.103 56.8338 718.243 56.8038C719.313 56.6038 720.303 56.8538 721.173 57.4838Z" fill="#334770"/>
<path d="M503.076 556.637C503.036 557.017 503.036 557.327 502.956 557.617C502.726 558.387 502.466 559.147 502.226 559.907C501.926 560.837 502.056 561.627 502.906 562.237C503.126 562.397 503.246 562.697 503.526 563.077C502.696 563.137 502.066 563.147 501.436 563.227C500.496 563.347 500.016 563.827 499.866 564.767C499.766 565.397 499.746 566.047 499.626 566.667C499.556 567.027 499.366 567.357 499.126 567.957C498.716 567.047 498.456 566.387 498.126 565.757C497.786 565.097 497.276 564.867 496.526 565.017C495.826 565.167 495.136 565.387 494.436 565.537C494.226 565.587 493.896 565.537 493.776 565.397C493.676 565.277 493.716 564.927 493.806 564.757C494.326 563.857 494.886 562.977 495.416 562.087C495.896 561.277 495.996 560.557 495.376 559.657C494.906 558.967 494.816 558.017 494.606 557.167C494.556 556.967 494.596 556.647 494.726 556.517C494.826 556.427 495.186 556.487 495.346 556.597C496.136 557.147 496.886 557.737 497.656 558.317C498.536 558.987 499.396 558.947 500.306 558.317C501.156 557.717 501.916 556.977 503.076 556.637Z" fill="#EFCC13"/>
<path d="M509.226 564.347C509.606 564.777 509.686 565.367 509.356 565.917C509.016 566.477 508.466 566.577 507.886 566.467C507.266 566.347 506.656 566.117 506.036 565.967C505.336 565.797 504.636 565.597 503.926 565.517C502.496 565.367 502.336 565.507 501.966 566.927C501.586 568.397 501.196 569.867 500.786 571.327C500.676 571.707 500.486 572.067 500.256 572.387C499.956 572.827 499.106 572.877 498.766 572.457C498.476 572.087 498.216 571.677 498.016 571.247C497.556 570.227 497.156 569.177 496.706 568.157C496.456 567.587 496.206 567.457 495.566 567.577C494.226 567.817 492.896 568.107 491.556 568.317C490.526 568.487 489.786 567.717 490.056 566.737C490.246 566.057 490.536 565.377 490.886 564.757C491.476 563.707 492.116 562.687 492.786 561.697C493.286 560.967 493.306 560.307 492.976 559.467C492.446 558.137 492.076 556.737 491.706 555.347C491.546 554.737 491.466 554.077 491.486 553.447C491.506 552.377 492.556 551.707 493.536 552.127C494.036 552.337 494.496 552.697 494.926 553.047C495.986 553.897 497.006 554.797 498.056 555.657C498.656 556.137 498.966 556.147 499.576 555.737C500.636 555.027 501.666 554.257 502.746 553.567C503.346 553.177 503.986 552.827 504.666 552.597C505.856 552.187 506.766 552.927 506.686 554.507C506.576 554.877 506.396 555.577 506.166 556.247C505.776 557.377 505.346 558.507 504.916 559.627C504.716 560.157 504.836 560.577 505.266 560.897C505.836 561.327 506.476 561.687 507.016 562.157C507.806 562.847 508.546 563.577 509.226 564.347ZM502.956 557.617C503.036 557.337 503.026 557.017 503.076 556.637C501.916 556.967 501.156 557.717 500.316 558.307C499.406 558.937 498.546 558.967 497.666 558.307C496.896 557.737 496.146 557.137 495.356 556.587C495.196 556.477 494.826 556.407 494.736 556.507C494.606 556.637 494.566 556.957 494.616 557.157C494.836 558.007 494.916 558.957 495.386 559.647C496.006 560.547 495.906 561.267 495.426 562.077C494.896 562.967 494.336 563.847 493.816 564.747C493.716 564.927 493.676 565.277 493.786 565.387C493.906 565.527 494.236 565.577 494.446 565.527C495.156 565.387 495.836 565.157 496.536 565.007C497.286 564.847 497.796 565.087 498.136 565.747C498.456 566.377 498.726 567.037 499.136 567.947C499.376 567.337 499.566 567.007 499.636 566.657C499.756 566.037 499.766 565.387 499.876 564.757C500.036 563.817 500.506 563.347 501.446 563.217C502.076 563.137 502.706 563.127 503.536 563.067C503.256 562.687 503.146 562.387 502.916 562.227C502.066 561.617 501.936 560.827 502.236 559.897C502.466 559.137 502.736 558.387 502.956 557.617Z" fill="#585858"/>
<path d="M179.076 422.637C179.036 423.017 179.036 423.327 178.956 423.617C178.726 424.387 178.466 425.147 178.226 425.907C177.926 426.837 178.056 427.627 178.906 428.237C179.126 428.397 179.246 428.697 179.526 429.077C178.696 429.137 178.066 429.147 177.436 429.227C176.496 429.347 176.016 429.827 175.866 430.767C175.766 431.397 175.746 432.047 175.626 432.667C175.556 433.027 175.366 433.357 175.126 433.957C174.716 433.047 174.456 432.387 174.126 431.757C173.786 431.097 173.276 430.867 172.526 431.017C171.826 431.167 171.136 431.387 170.436 431.537C170.226 431.587 169.896 431.537 169.776 431.397C169.676 431.277 169.716 430.927 169.806 430.757C170.326 429.857 170.886 428.977 171.416 428.087C171.896 427.277 171.996 426.557 171.376 425.657C170.906 424.967 170.816 424.017 170.606 423.167C170.556 422.967 170.596 422.647 170.726 422.517C170.826 422.427 171.186 422.487 171.346 422.597C172.136 423.147 172.886 423.737 173.656 424.317C174.536 424.987 175.396 424.947 176.306 424.317C177.156 423.717 177.916 422.977 179.076 422.637Z" fill="#EFCC13"/>
<path d="M185.226 430.347C185.606 430.777 185.686 431.367 185.356 431.917C185.016 432.477 184.466 432.577 183.886 432.467C183.266 432.347 182.656 432.117 182.036 431.967C181.336 431.797 180.636 431.597 179.926 431.517C178.496 431.367 178.336 431.507 177.966 432.927C177.586 434.397 177.196 435.867 176.786 437.327C176.676 437.707 176.486 438.067 176.256 438.387C175.956 438.827 175.106 438.877 174.766 438.457C174.476 438.087 174.216 437.677 174.016 437.247C173.556 436.227 173.156 435.177 172.706 434.157C172.456 433.587 172.206 433.457 171.566 433.577C170.226 433.817 168.896 434.107 167.556 434.317C166.526 434.487 165.786 433.717 166.056 432.737C166.246 432.057 166.536 431.377 166.886 430.757C167.476 429.707 168.116 428.687 168.786 427.697C169.286 426.967 169.306 426.307 168.976 425.467C168.446 424.137 168.076 422.737 167.706 421.347C167.546 420.737 167.466 420.077 167.486 419.447C167.506 418.377 168.556 417.707 169.536 418.127C170.036 418.337 170.496 418.697 170.926 419.047C171.986 419.897 173.006 420.797 174.056 421.657C174.656 422.137 174.966 422.147 175.576 421.737C176.636 421.027 177.666 420.257 178.746 419.567C179.346 419.177 179.986 418.827 180.666 418.597C181.856 418.187 182.766 418.927 182.686 420.507C182.576 420.877 182.396 421.577 182.166 422.247C181.776 423.377 181.346 424.507 180.916 425.627C180.716 426.157 180.836 426.577 181.266 426.897C181.836 427.327 182.476 427.687 183.016 428.157C183.806 428.847 184.546 429.577 185.226 430.347ZM178.956 423.617C179.036 423.337 179.026 423.017 179.076 422.637C177.916 422.967 177.156 423.717 176.316 424.307C175.406 424.937 174.546 424.967 173.666 424.307C172.896 423.737 172.146 423.137 171.356 422.587C171.196 422.477 170.826 422.407 170.736 422.507C170.606 422.637 170.566 422.957 170.616 423.157C170.836 424.007 170.916 424.957 171.386 425.647C172.006 426.547 171.906 427.267 171.426 428.077C170.896 428.967 170.336 429.847 169.816 430.747C169.716 430.927 169.676 431.277 169.786 431.387C169.906 431.527 170.236 431.577 170.446 431.527C171.156 431.387 171.836 431.157 172.536 431.007C173.286 430.847 173.796 431.087 174.136 431.747C174.456 432.377 174.726 433.037 175.136 433.947C175.376 433.337 175.566 433.007 175.636 432.657C175.756 432.037 175.766 431.387 175.876 430.757C176.036 429.817 176.506 429.347 177.446 429.217C178.076 429.137 178.706 429.127 179.536 429.067C179.256 428.687 179.146 428.387 178.916 428.227C178.066 427.617 177.936 426.827 178.236 425.897C178.466 425.137 178.736 424.387 178.956 423.617Z" fill="#585858"/>
<path d="M713.076 405.637C713.036 406.017 713.036 406.327 712.956 406.617C712.726 407.387 712.466 408.147 712.226 408.907C711.926 409.837 712.056 410.627 712.906 411.237C713.126 411.397 713.246 411.697 713.526 412.077C712.696 412.137 712.066 412.147 711.436 412.227C710.496 412.347 710.016 412.827 709.866 413.767C709.766 414.397 709.746 415.047 709.626 415.667C709.556 416.027 709.366 416.357 709.126 416.957C708.716 416.047 708.456 415.387 708.126 414.757C707.786 414.097 707.276 413.867 706.526 414.017C705.826 414.167 705.136 414.387 704.436 414.537C704.226 414.587 703.896 414.537 703.776 414.397C703.676 414.277 703.716 413.927 703.806 413.757C704.326 412.857 704.886 411.977 705.416 411.087C705.896 410.277 705.996 409.557 705.376 408.657C704.906 407.967 704.816 407.017 704.606 406.167C704.556 405.967 704.596 405.647 704.726 405.517C704.826 405.427 705.186 405.487 705.346 405.597C706.136 406.147 706.886 406.737 707.656 407.317C708.536 407.987 709.396 407.947 710.306 407.317C711.156 406.717 711.916 405.977 713.076 405.637Z" fill="#EFCC13"/>
<path d="M719.226 413.347C719.606 413.777 719.686 414.367 719.356 414.917C719.016 415.477 718.466 415.577 717.886 415.467C717.266 415.347 716.656 415.117 716.036 414.967C715.336 414.797 714.636 414.597 713.926 414.517C712.496 414.367 712.336 414.507 711.966 415.927C711.586 417.397 711.196 418.867 710.786 420.327C710.676 420.707 710.486 421.067 710.256 421.387C709.956 421.827 709.106 421.877 708.766 421.457C708.476 421.087 708.216 420.677 708.016 420.247C707.556 419.227 707.156 418.177 706.706 417.157C706.456 416.587 706.206 416.457 705.566 416.577C704.226 416.817 702.896 417.107 701.556 417.317C700.526 417.487 699.786 416.717 700.056 415.737C700.246 415.057 700.536 414.377 700.886 413.757C701.476 412.707 702.116 411.687 702.786 410.697C703.286 409.967 703.306 409.307 702.976 408.467C702.446 407.137 702.076 405.737 701.706 404.347C701.546 403.737 701.466 403.077 701.486 402.447C701.506 401.377 702.556 400.707 703.536 401.127C704.036 401.337 704.496 401.697 704.926 402.047C705.986 402.897 707.006 403.797 708.056 404.657C708.656 405.137 708.966 405.147 709.576 404.737C710.636 404.027 711.666 403.257 712.746 402.567C713.346 402.177 713.986 401.827 714.666 401.597C715.856 401.187 716.766 401.927 716.686 403.507C716.576 403.877 716.396 404.577 716.166 405.247C715.776 406.377 715.346 407.507 714.916 408.627C714.716 409.157 714.836 409.577 715.266 409.897C715.836 410.327 716.476 410.687 717.016 411.157C717.806 411.847 718.546 412.577 719.226 413.347ZM712.956 406.617C713.036 406.337 713.026 406.017 713.076 405.637C711.916 405.967 711.156 406.717 710.316 407.307C709.406 407.937 708.546 407.967 707.666 407.307C706.896 406.737 706.146 406.137 705.356 405.587C705.196 405.477 704.826 405.407 704.736 405.507C704.606 405.637 704.566 405.957 704.616 406.157C704.836 407.007 704.916 407.957 705.386 408.647C706.006 409.547 705.906 410.267 705.426 411.077C704.896 411.967 704.336 412.847 703.816 413.747C703.716 413.927 703.676 414.277 703.786 414.387C703.906 414.527 704.236 414.577 704.446 414.527C705.156 414.387 705.836 414.157 706.536 414.007C707.286 413.847 707.796 414.087 708.136 414.747C708.456 415.377 708.726 416.037 709.136 416.947C709.376 416.337 709.566 416.007 709.636 415.657C709.756 415.037 709.766 414.387 709.876 413.757C710.036 412.817 710.506 412.347 711.446 412.217C712.076 412.137 712.706 412.127 713.536 412.067C713.256 411.687 713.146 411.387 712.916 411.227C712.066 410.617 711.936 409.827 712.236 408.897C712.466 408.137 712.736 407.387 712.956 406.617Z" fill="#585858"/>
<path d="M459.076 175.637C459.036 176.017 459.036 176.327 458.956 176.617C458.726 177.387 458.466 178.147 458.226 178.907C457.926 179.837 458.056 180.627 458.906 181.237C459.126 181.397 459.246 181.697 459.526 182.077C458.696 182.137 458.066 182.147 457.436 182.227C456.496 182.347 456.016 182.827 455.866 183.767C455.766 184.397 455.746 185.047 455.626 185.667C455.556 186.027 455.366 186.357 455.126 186.957C454.716 186.047 454.456 185.387 454.126 184.757C453.786 184.097 453.276 183.867 452.526 184.017C451.826 184.167 451.136 184.387 450.436 184.537C450.226 184.587 449.896 184.537 449.776 184.397C449.676 184.277 449.716 183.927 449.806 183.757C450.326 182.857 450.886 181.977 451.416 181.087C451.896 180.277 451.996 179.557 451.376 178.657C450.906 177.967 450.816 177.017 450.606 176.167C450.556 175.967 450.596 175.647 450.726 175.517C450.826 175.427 451.186 175.487 451.346 175.597C452.136 176.147 452.886 176.737 453.656 177.317C454.536 177.987 455.396 177.947 456.306 177.317C457.156 176.717 457.916 175.977 459.076 175.637Z" fill="#EFCC13"/>
<path d="M465.226 183.347C465.606 183.777 465.686 184.367 465.356 184.917C465.016 185.477 464.466 185.577 463.886 185.467C463.266 185.347 462.656 185.117 462.036 184.967C461.336 184.797 460.636 184.597 459.926 184.517C458.496 184.367 458.336 184.507 457.966 185.927C457.586 187.397 457.196 188.867 456.786 190.327C456.676 190.707 456.486 191.067 456.256 191.387C455.956 191.827 455.106 191.877 454.766 191.457C454.476 191.087 454.216 190.677 454.016 190.247C453.556 189.227 453.156 188.177 452.706 187.157C452.456 186.587 452.206 186.457 451.566 186.577C450.226 186.817 448.896 187.107 447.556 187.317C446.526 187.487 445.786 186.717 446.056 185.737C446.246 185.057 446.536 184.377 446.886 183.757C447.476 182.707 448.116 181.687 448.786 180.697C449.286 179.967 449.306 179.307 448.976 178.467C448.446 177.137 448.076 175.737 447.706 174.347C447.546 173.737 447.466 173.077 447.486 172.447C447.506 171.377 448.556 170.707 449.536 171.127C450.036 171.337 450.496 171.697 450.926 172.047C451.986 172.897 453.006 173.797 454.056 174.657C454.656 175.137 454.966 175.147 455.576 174.737C456.636 174.027 457.666 173.257 458.746 172.567C459.346 172.177 459.986 171.827 460.666 171.597C461.856 171.187 462.766 171.927 462.686 173.507C462.576 173.877 462.396 174.577 462.166 175.247C461.776 176.377 461.346 177.507 460.916 178.627C460.716 179.157 460.836 179.577 461.266 179.897C461.836 180.327 462.476 180.687 463.016 181.157C463.806 181.847 464.546 182.577 465.226 183.347ZM458.956 176.617C459.036 176.337 459.026 176.017 459.076 175.637C457.916 175.967 457.156 176.717 456.316 177.307C455.406 177.937 454.546 177.967 453.666 177.307C452.896 176.737 452.146 176.137 451.356 175.587C451.196 175.477 450.826 175.407 450.736 175.507C450.606 175.637 450.566 175.957 450.616 176.157C450.836 177.007 450.916 177.957 451.386 178.647C452.006 179.547 451.906 180.267 451.426 181.077C450.896 181.967 450.336 182.847 449.816 183.747C449.716 183.927 449.676 184.277 449.786 184.387C449.906 184.527 450.236 184.577 450.446 184.527C451.156 184.387 451.836 184.157 452.536 184.007C453.286 183.847 453.796 184.087 454.136 184.747C454.456 185.377 454.726 186.037 455.136 186.947C455.376 186.337 455.566 186.007 455.636 185.657C455.756 185.037 455.766 184.387 455.876 183.757C456.036 182.817 456.506 182.347 457.446 182.217C458.076 182.137 458.706 182.127 459.536 182.067C459.256 181.687 459.146 181.387 458.916 181.227C458.066 180.617 457.936 179.827 458.236 178.897C458.466 178.137 458.736 177.387 458.956 176.617Z" fill="#585858"/>
<path d="M114.076 57.6369C114.036 58.0169 114.036 58.3269 113.956 58.6169C113.726 59.3869 113.466 60.1469 113.226 60.9069C112.926 61.8369 113.056 62.6269 113.906 63.2369C114.126 63.3969 114.246 63.6969 114.526 64.0769C113.696 64.1369 113.066 64.1469 112.436 64.2269C111.496 64.3469 111.016 64.8269 110.866 65.7669C110.766 66.3969 110.746 67.0469 110.626 67.6669C110.556 68.0269 110.366 68.3569 110.126 68.9569C109.716 68.0469 109.456 67.3869 109.126 66.7569C108.786 66.0969 108.276 65.8669 107.526 66.0169C106.826 66.1669 106.136 66.3869 105.436 66.5369C105.226 66.5869 104.896 66.5369 104.776 66.3969C104.676 66.2769 104.716 65.9269 104.806 65.7569C105.326 64.8569 105.886 63.9769 106.416 63.0869C106.896 62.2769 106.996 61.5569 106.376 60.6569C105.906 59.9669 105.816 59.0169 105.606 58.1669C105.556 57.9669 105.596 57.6469 105.726 57.5169C105.826 57.4269 106.186 57.4869 106.346 57.5969C107.136 58.1469 107.886 58.7369 108.656 59.3169C109.536 59.9869 110.396 59.9469 111.306 59.3169C112.156 58.7169 112.916 57.9769 114.076 57.6369Z" fill="#EFCC13"/>
<path d="M120.226 65.3468C120.606 65.7768 120.686 66.3668 120.356 66.9168C120.016 67.4768 119.466 67.5768 118.886 67.4668C118.266 67.3468 117.656 67.1168 117.036 66.9668C116.336 66.7968 115.636 66.5968 114.926 66.5168C113.496 66.3668 113.336 66.5068 112.966 67.9268C112.586 69.3968 112.196 70.8668 111.786 72.3268C111.676 72.7068 111.486 73.0668 111.256 73.3868C110.956 73.8268 110.106 73.8768 109.766 73.4568C109.476 73.0868 109.216 72.6768 109.016 72.2468C108.556 71.2268 108.156 70.1768 107.706 69.1568C107.456 68.5868 107.206 68.4568 106.566 68.5768C105.226 68.8168 103.896 69.1068 102.556 69.3168C101.526 69.4868 100.786 68.7168 101.056 67.7368C101.246 67.0568 101.536 66.3768 101.886 65.7568C102.476 64.7068 103.116 63.6868 103.786 62.6968C104.286 61.9668 104.306 61.3068 103.976 60.4668C103.446 59.1368 103.076 57.7368 102.706 56.3468C102.546 55.7368 102.466 55.0768 102.486 54.4468C102.506 53.3768 103.556 52.7068 104.536 53.1268C105.036 53.3368 105.496 53.6968 105.926 54.0468C106.986 54.8968 108.006 55.7968 109.056 56.6568C109.656 57.1368 109.966 57.1468 110.576 56.7368C111.636 56.0268 112.666 55.2568 113.746 54.5668C114.346 54.1768 114.986 53.8268 115.666 53.5968C116.856 53.1868 117.766 53.9268 117.686 55.5068C117.576 55.8768 117.396 56.5768 117.166 57.2468C116.776 58.3768 116.346 59.5068 115.916 60.6268C115.716 61.1568 115.836 61.5768 116.266 61.8968C116.836 62.3268 117.476 62.6868 118.016 63.1568C118.806 63.8468 119.546 64.5768 120.226 65.3468ZM113.956 58.6168C114.036 58.3368 114.026 58.0168 114.076 57.6368C112.916 57.9668 112.156 58.7168 111.316 59.3068C110.406 59.9368 109.546 59.9668 108.666 59.3068C107.896 58.7368 107.146 58.1368 106.356 57.5868C106.196 57.4768 105.826 57.4068 105.736 57.5068C105.606 57.6368 105.566 57.9568 105.616 58.1568C105.836 59.0068 105.916 59.9568 106.386 60.6468C107.006 61.5468 106.906 62.2668 106.426 63.0768C105.896 63.9668 105.336 64.8468 104.816 65.7468C104.716 65.9268 104.676 66.2768 104.786 66.3868C104.906 66.5268 105.236 66.5768 105.446 66.5268C106.156 66.3868 106.836 66.1568 107.536 66.0068C108.286 65.8468 108.796 66.0868 109.136 66.7468C109.456 67.3768 109.726 68.0368 110.136 68.9468C110.376 68.3368 110.566 68.0068 110.636 67.6568C110.756 67.0368 110.766 66.3868 110.876 65.7568C111.036 64.8168 111.506 64.3468 112.446 64.2168C113.076 64.1368 113.706 64.1268 114.536 64.0668C114.256 63.6868 114.146 63.3868 113.916 63.2268C113.066 62.6168 112.936 61.8268 113.236 60.8968C113.466 60.1368 113.736 59.3868 113.956 58.6168Z" fill="#585858"/>
<circle cx="126.839" cy="309.262" r="16.8123" transform="rotate(29.2558 126.839 309.262)" fill="#FFDDB1"/>
<circle cx="111.884" cy="300.884" r="15.3123" transform="rotate(29.2558 111.884 300.884)" stroke="#F7A02F" stroke-width="3"/>
<rect x="762.255" y="681" width="32" height="32" rx="4" transform="rotate(45 762.255 681)" fill="#FFDDB1"/>
<rect x="744.627" y="683.494" width="29" height="29" rx="2.5" transform="rotate(45 744.627 683.494)" stroke="#F7A02F" stroke-width="3"/>
<path d="M247.667 520.155C248.904 519.44 250.429 519.44 251.667 520.155L260.08 525.012C261.317 525.726 262.08 527.047 262.08 528.476V538.191C262.08 539.62 261.317 540.94 260.08 541.655L251.667 546.512C250.429 547.226 248.904 547.226 247.667 546.512L239.254 541.655C238.016 540.94 237.254 539.62 237.254 538.191V528.476C237.254 527.047 238.016 525.726 239.254 525.012L247.667 520.155Z" fill="#FFDDB1"/>
<path d="M233.833 521.021C234.762 520.485 235.905 520.485 236.833 521.021L245.246 525.878C246.175 526.414 246.746 527.404 246.746 528.476V538.191C246.746 539.262 246.175 540.253 245.246 540.789L236.833 545.646C235.905 546.182 234.762 546.182 233.833 545.646L225.42 540.789C224.492 540.253 223.92 539.262 223.92 538.191V528.476C223.92 527.404 224.492 526.414 225.42 525.878L233.833 521.021Z" stroke="#F7A02F" stroke-width="2"/>
<path d="M647.926 239.46C647.628 238.397 646.524 237.776 645.46 238.074C644.397 238.372 643.776 239.476 644.074 240.54L647.926 239.46ZM656.169 276.278L661.889 253.903L639.652 260.136L656.169 276.278ZM644.074 240.54L649.385 259.486L653.236 258.406L647.926 239.46L644.074 240.54Z" fill="#FEA81B"/>
</g>
<defs>
<clipPath id="clip0_6246_62813">
<rect width="827" height="940" rx="30" fill="white"/>
</clipPath>
</defs>
</svg>
